<svg id="eoX4zGbMSuF1" xmlns="http://www.w3.org/2000/svg" xmlns:xlink="http://www.w3.org/1999/xlink" viewBox="0 0 432 288" shape-rendering="geometricPrecision" text-rendering="geometricPrecision" style="background-color:transparent">
<style><![CDATA[
#eoX4zGbMSuF13_to {animation: eoX4zGbMSuF13_to__to 3000ms linear infinite normal forwards}@keyframes eoX4zGbMSuF13_to__to { 0% {transform: translate(150.000001px,120px)} 23.333333% {transform: translate(150.000001px,113.5px)} 50% {transform: translate(150.000001px,120.5px)} 70% {transform: translate(150.000001px,125.5px)} 100% {transform: translate(150.000001px,120.006623px)}} #eoX4zGbMSuF14_tr {animation: eoX4zGbMSuF14_tr__tr 3000ms linear infinite normal forwards}@keyframes eoX4zGbMSuF14_tr__tr { 0% {transform: translate(285.641716px,130px) rotate(0deg)} 26.666667% {transform: translate(285.641716px,130px) rotate(-2.524383deg)} 50% {transform: translate(285.641716px,130px) rotate(-0.365991deg)} 73.333333% {transform: translate(285.641716px,130px) rotate(5.287358deg)} 100% {transform: translate(285.641716px,130px) rotate(0.164326deg)}}
]]></style>
<rect width="280" height="156" rx="0" ry="0" transform="translate(76 37)" fill="#1c49ea" fill-opacity="0.08"/><rect width="36" height="8" rx="0" ry="0" transform="translate(84 44)" fill="#fff"/><rect width="16" height="8" rx="0" ry="0" transform="matrix(0 1-1 0 92 52)" fill="#fff"/><path d="M376,232h-320v8h-8v8h-8v8h352v-8h-8v-8h-8v-8ZM64,248h304v-8h-304v8Z" clip-rule="evenodd" fill="#1c49ea" fill-opacity="0.15" fill-rule="evenodd"/><rect width="304" height="8" rx="0" ry="0" transform="translate(64 240)" fill="#f7f8ff"/><rect width="416" height="8" rx="0" ry="0" transform="translate(8 272)" fill="#1c49ea" fill-opacity="0.15"/><path d="M376,8L56,8v8h-8v185v15h336v-15-185h-8v-8ZM364,29h-296v172h296v-172Z" clip-rule="evenodd" fill="#1c49ea" fill-opacity="0.42" fill-rule="evenodd"/><path d="M68,201v-172h8h280h8v172h-8-280-8Zm288-8v-156h-280v156h280Z" clip-rule="evenodd" fill-rule="evenodd"/><rect width="8" height="8" rx="0" ry="0" transform="translate(84 76)" fill="#fff"/><path d="M384,224h-336v8h-8v8h-8v8h-8v8h-8v8h400v-8h-8v-8h-8v-8h-8v-8h-8v-8Zm8,24h-8v-8h-8v-8h-320v8h-8v8h-8v8h352v-8Z" clip-rule="evenodd" fill="#1c49ea" fill-opacity="0.42" fill-rule="evenodd"/><path d="M376,0L56,0v8h-8v8h-8v200h8v8h-8v8h-8v8h-8v8h-8v8h-8v8v8h-8v8h8v8h416v-8h8v-8h-8v-8-8h-8v-8h-8v-8h-8v-8h-8v-8h-8v-8h8v-200h-8v-8h-8v-8Zm0,8v8h8v200h-8-320-8v-200h8v-8h320Zm0,216h8v8h8v8h8v8h8v8h8v8h-400v-8h8v-8h8v-8h8v-8h8v-8h8h320Zm48,48h-416v8h416v-8Z" clip-rule="evenodd" fill-rule="evenodd"/><g id="eoX4zGbMSuF13_to" transform="translate(150.000001,120)"><path d="M132,57h8v6h9v8h7v8h-7v8h-5v10h3h8v8h-8v15h8v-15h8v15h28v-12h8v3h4v2h4v3h4v4v1h3v8h-3v5h-4v2h-4v2h-4v3h-8v-13h-44v1v1v14h-8v-8h-7v44h-8v-52h-21v-8h21v-17h-24v21h-6v8h-12v-8h10v-21-8h36v-8h-6v-24h10v-6Zm15,95v-8h8v8h-8Zm0,0v22h-8v-22h8Z" transform="translate(-148,-118.5)" clip-rule="evenodd" fill-rule="evenodd"/></g><g id="eoX4zGbMSuF14_tr" transform="translate(285.641716,130) rotate(0)"><g transform="translate(-285.641716,-130)"><path d="M245,78h80h8v8h-8-80-8v-8h8Zm-8,72h-8v-64h8v64Zm96,0h-96v8h-8v8h-8v8h8v8h112v-8h8v-8h-8v-8h-8v-8Zm0,0h8v-64h-8v64Zm0,8v8h8v8h-112v-8h8v-8h96Z" transform="translate(.641711 0)" clip-rule="evenodd" fill-rule="evenodd"/><rect width="80" height="48" rx="0" ry="0" transform="translate(245.641711 96)" fill="#3a497c"/></g></g></svg>
