<svg width="280" height="58" viewBox="0 0 280 58" fill="none" xmlns="http://www.w3.org/2000/svg">
<path d="M83.4203 43.4492C81.2068 43.4492 79.5206 42.8633 78.3617 41.6914C77.2159 40.5065 76.643 38.638 76.643 36.0859V26.5938H74.0062V21.8672H76.643V16.6523H83.4594V21.8672H86.9164V26.5938H83.4594V36.0664C83.4594 36.7565 83.6156 37.2383 83.9281 37.5117C84.2406 37.7852 84.6703 37.9219 85.2172 37.9219C85.4516 37.9219 85.6859 37.9089 85.9203 37.8828C86.1547 37.8568 86.3891 37.8242 86.6234 37.7852L87.0922 42.9023C86.4932 43.0716 85.8878 43.2018 85.2758 43.293C84.6768 43.3971 84.0583 43.4492 83.4203 43.4492ZM99.1562 43.4102C96.9688 43.4102 95.25 42.7201 94 41.3398C92.75 39.9596 92.125 37.8242 92.125 34.9336V26.5156L89.8594 25.8906V21.8672H92.125H98.9805V34.9727C98.9805 36.0143 99.1953 36.8086 99.625 37.3555C100.068 37.8893 100.725 38.1562 101.598 38.1562C102.105 38.1562 102.607 38.0651 103.102 37.8828C103.609 37.6875 104.059 37.401 104.449 37.0234V26.5156L102.145 25.8906V21.8672H104.449H111.305V38.3711L113.941 38.9961V43H105.348L104.898 40.5977C104.221 41.5091 103.395 42.2057 102.418 42.6875C101.454 43.1693 100.367 43.4102 99.1562 43.4102ZM117.802 43V38.9961L120.263 38.3711V26.5156L117.334 25.8906V21.8672H126.728L126.884 24.4453L126.923 24.9727C127.392 23.7747 127.972 22.8958 128.662 22.3359C129.365 21.763 130.237 21.4766 131.279 21.4766C131.565 21.4766 131.904 21.5026 132.295 21.5547C132.685 21.5938 133.082 21.6719 133.486 21.7891L132.802 28.0781L129.873 27.9414C129.196 27.9154 128.662 27.9935 128.271 28.1758C127.893 28.3451 127.509 28.6315 127.119 29.0352V38.3711L129.58 38.9961V43H117.802ZM136.058 43V38.9961L138.519 38.3711V26.5156L135.589 25.8906V21.8672H145.003L145.238 24.8164C145.941 23.7617 146.8 22.9414 147.816 22.3555C148.844 21.7695 150.01 21.4766 151.312 21.4766C153.291 21.4766 154.853 22.1471 155.999 23.4883C157.145 24.8294 157.718 26.9583 157.718 29.875V38.3711L160.179 38.9961V43H148.851V38.9961L150.843 38.3711V29.8555C150.843 28.7227 150.615 27.9219 150.159 27.4531C149.704 26.9714 149.053 26.7305 148.206 26.7305C147.568 26.7305 147.021 26.8477 146.566 27.082C146.11 27.3034 145.713 27.6419 145.374 28.0977V38.3711L147.132 38.9961V43H136.058ZM172.009 51.5352C170.902 51.5352 169.639 51.3984 168.22 51.125C166.8 50.8516 165.55 50.4544 164.47 49.9336L165.563 45.207C166.592 45.6107 167.627 45.9167 168.669 46.125C169.723 46.3464 170.68 46.457 171.54 46.457C172.946 46.457 173.975 46.0664 174.626 45.2852C175.29 44.5169 175.622 43.4622 175.622 42.1211V41.125C175.036 41.8542 174.352 42.4206 173.571 42.8242C172.803 43.2148 171.917 43.4102 170.915 43.4102C169.196 43.4102 167.725 42.974 166.501 42.1016C165.277 41.2292 164.339 40.0052 163.688 38.4297C163.05 36.8411 162.731 34.9922 162.731 32.8828V32.4727C162.731 30.2721 163.05 28.3516 163.688 26.7109C164.326 25.0573 165.238 23.7747 166.423 22.8633C167.621 21.9388 169.046 21.4766 170.7 21.4766C171.924 21.4766 172.966 21.7435 173.825 22.2773C174.684 22.8112 175.42 23.5599 176.032 24.5234L176.462 21.8672H182.497V42.1602C182.497 44.0352 182.067 45.6758 181.208 47.082C180.361 48.4883 179.151 49.582 177.575 50.3633C176.012 51.1445 174.157 51.5352 172.009 51.5352ZM172.927 38.1562C173.499 38.1562 174.02 38.0651 174.489 37.8828C174.958 37.6875 175.335 37.3945 175.622 37.0039V28.1562C175.335 27.6875 174.958 27.3359 174.489 27.1016C174.02 26.8542 173.499 26.7305 172.927 26.7305C172.106 26.7305 171.449 26.9714 170.954 27.4531C170.472 27.9219 170.121 28.5859 169.899 29.4453C169.691 30.3047 169.587 31.3138 169.587 32.4727V32.8828C169.587 34.5625 169.828 35.8646 170.309 36.7891C170.791 37.7005 171.664 38.1562 172.927 38.1562ZM181.696 26.5938L178.61 21.8672H184.899V25.9102L181.696 26.5938ZM195.186 43.4102C193.142 43.4102 191.475 42.8307 190.186 41.6719C188.897 40.513 188.252 38.9701 188.252 37.043C188.252 35.7279 188.604 34.5625 189.307 33.5469C190.023 32.5312 191.091 31.737 192.51 31.1641C193.942 30.5781 195.733 30.2852 197.881 30.2852H200.088V29.0352C200.088 28.1888 199.847 27.4727 199.366 26.8867C198.884 26.2878 198.122 25.9883 197.08 25.9883C196.638 25.9883 196.221 26.0469 195.83 26.1641C195.453 26.2682 195.108 26.4245 194.795 26.6328L194.327 29.3281H189.502L189.405 23.4492C190.603 22.9154 191.853 22.4531 193.155 22.0625C194.47 21.6719 195.935 21.4766 197.549 21.4766C200.427 21.4766 202.712 22.1406 204.405 23.4688C206.097 24.7839 206.944 26.6654 206.944 29.1133V36.9062C206.944 37.2057 206.944 37.4987 206.944 37.7852C206.957 38.0716 206.989 38.3451 207.041 38.6055L209.327 38.9961V43H201.319C201.149 42.7656 200.967 42.4531 200.772 42.0625C200.577 41.6719 200.44 41.2812 200.362 40.8906C199.724 41.6849 199.008 42.3034 198.213 42.7461C197.419 43.1888 196.41 43.4102 195.186 43.4102ZM197.295 38.5664C197.79 38.5664 198.285 38.4688 198.78 38.2734C199.288 38.0651 199.724 37.7591 200.088 37.3555V34.3086H197.959C197.035 34.3086 196.319 34.5104 195.811 34.9141C195.316 35.3177 195.069 35.8516 195.069 36.5156C195.069 37.1536 195.277 37.6549 195.694 38.0195C196.11 38.3841 196.644 38.5664 197.295 38.5664ZM219.867 43.4492C217.654 43.4492 215.967 42.8633 214.809 41.6914C213.663 40.5065 213.09 38.638 213.09 36.0859V26.5938H210.453V21.8672H213.09V16.6523H219.906V21.8672H223.363V26.5938H219.906V36.0664C219.906 36.7565 220.062 37.2383 220.375 37.5117C220.688 37.7852 221.117 37.9219 221.664 37.9219C221.898 37.9219 222.133 37.9089 222.367 37.8828C222.602 37.8568 222.836 37.8242 223.07 37.7852L223.539 42.9023C222.94 43.0716 222.335 43.2018 221.723 43.293C221.124 43.3971 220.505 43.4492 219.867 43.4492ZM236.736 43.4102C234.666 43.4102 232.856 42.9674 231.306 42.082C229.77 41.1836 228.572 39.9596 227.712 38.4102C226.866 36.8607 226.443 35.1094 226.443 33.1562V32.4336C226.443 30.2852 226.821 28.3841 227.576 26.7305C228.331 25.0768 229.438 23.7878 230.896 22.8633C232.354 21.9258 234.145 21.4635 236.267 21.4766C238.181 21.4766 239.796 21.8477 241.111 22.5898C242.439 23.319 243.448 24.3997 244.138 25.832C244.828 27.2513 245.173 29.0026 245.173 31.0859V34.6211H233.552L233.533 34.7578C233.637 35.4219 233.858 36.0143 234.197 36.5352C234.548 37.043 235.03 37.4466 235.642 37.7461C236.254 38.0456 237.009 38.1953 237.908 38.1953C238.793 38.1953 239.659 38.0977 240.505 37.9023C241.365 37.694 242.27 37.3685 243.22 36.9258L244.783 41.0664C243.832 41.7435 242.673 42.3034 241.306 42.7461C239.939 43.1888 238.416 43.4102 236.736 43.4102ZM233.552 30.3828H238.923V29.875C238.923 29.1198 238.845 28.4883 238.689 27.9805C238.546 27.4727 238.292 27.0885 237.927 26.8281C237.563 26.5677 237.061 26.4375 236.423 26.4375C235.733 26.4375 235.18 26.6068 234.763 26.9453C234.36 27.2708 234.06 27.7266 233.865 28.3125C233.683 28.8854 233.552 29.543 233.474 30.2852L233.552 30.3828Z" fill="#030E2A"/>
<circle cx="29" cy="29" r="29" fill="#030E2A"/>
<path d="M31.2148 42.9492C29.0013 42.9492 27.3151 42.3633 26.1562 41.1914C25.0104 40.0065 24.4375 38.138 24.4375 35.5859V26.0938H21.8008V21.3672H24.4375V16.1523H31.2539V21.3672H34.7109V26.0938H31.2539V35.5664C31.2539 36.2565 31.4102 36.7383 31.7227 37.0117C32.0352 37.2852 32.4648 37.4219 33.0117 37.4219C33.2461 37.4219 33.4805 37.4089 33.7148 37.3828C33.9492 37.3568 34.1836 37.3242 34.418 37.2852L34.8867 42.4023C34.2878 42.5716 33.6823 42.7018 33.0703 42.793C32.4714 42.8971 31.8529 42.9492 31.2148 42.9492Z" fill="#F4F5F8"/>
</svg>
